<svg xmlns="http://www.w3.org/2000/svg" xmlns:xlink="http://www.w3.org/1999/xlink" width="1920" zoomAndPan="magnify" viewBox="0 0 1440 809.999993" height="1080" preserveAspectRatio="xMidYMid meet" version="1.0"><defs><g/></defs><g fill="#002f6c" fill-opacity="1"><g transform="translate(256.147844, 494.649312)"><g><path d="M 72.21875 -54.0625 L 99.78125 -54.0625 L 114.359375 -35.375 L 127.34375 -20.171875 L 153.734375 13.09375 L 123.75 13.09375 L 105.90625 -9.296875 L 96.828125 -21.75 Z M 82.78125 2.21875 C 68.84375 2.21875 56.3125 -0.984375 45.1875 -7.390625 C 34.070312 -13.796875 25.289062 -23.015625 18.84375 -35.046875 C 12.40625 -47.085938 9.1875 -61.59375 9.1875 -78.5625 C 9.1875 -95.59375 12.40625 -110.144531 18.84375 -122.21875 C 25.289062 -134.289062 34.070312 -143.53125 45.1875 -149.9375 C 56.3125 -156.34375 68.84375 -159.546875 82.78125 -159.546875 C 96.71875 -159.546875 109.226562 -156.34375 120.3125 -149.9375 C 131.40625 -143.53125 140.171875 -134.289062 146.609375 -122.21875 C 153.054688 -110.144531 156.28125 -95.59375 156.28125 -78.5625 C 156.28125 -61.59375 153.054688 -47.070312 146.609375 -35 C 140.171875 -22.925781 131.40625 -13.703125 120.3125 -7.328125 C 109.226562 -0.960938 96.71875 2.21875 82.78125 2.21875 Z M 82.78125 -26.390625 C 90.945312 -26.390625 98.09375 -28.394531 104.21875 -32.40625 C 110.34375 -36.425781 115.109375 -42.320312 118.515625 -50.09375 C 121.929688 -57.875 123.640625 -67.363281 123.640625 -78.5625 C 123.640625 -89.820312 121.929688 -99.359375 118.515625 -107.171875 C 115.109375 -114.984375 110.34375 -120.894531 104.21875 -124.90625 C 98.09375 -128.925781 90.945312 -130.9375 82.78125 -130.9375 C 74.6875 -130.9375 67.554688 -128.910156 61.390625 -124.859375 C 55.234375 -120.816406 50.445312 -114.90625 47.03125 -107.125 C 43.625 -99.34375 41.921875 -89.820312 41.921875 -78.5625 C 41.921875 -67.363281 43.625 -57.894531 47.03125 -50.15625 C 50.445312 -42.414062 55.234375 -36.519531 61.390625 -32.46875 C 67.554688 -28.414062 74.6875 -26.390625 82.78125 -26.390625 Z M 82.78125 -26.390625 "/></g></g></g><g fill="#002f6c" fill-opacity="1"><g transform="translate(560.69477, 494.375093)"><g><path d="M 71.71875 2.328125 C 58.925781 2.328125 47.851562 0.359375 38.5 -3.578125 C 29.144531 -7.523438 21.882812 -13.347656 16.71875 -21.046875 C 11.550781 -28.742188 8.863281 -38.179688 8.65625 -49.359375 L 39.96875 -49.359375 C 40.25 -44.015625 41.757812 -39.492188 44.5 -35.796875 C 47.25 -32.109375 50.941406 -29.332031 55.578125 -27.46875 C 60.222656 -25.613281 65.535156 -24.6875 71.515625 -24.6875 C 77.273438 -24.6875 82.316406 -25.53125 86.640625 -27.21875 C 90.960938 -28.90625 94.316406 -31.257812 96.703125 -34.28125 C 99.097656 -37.300781 100.296875 -40.78125 100.296875 -44.71875 C 100.296875 -48.300781 99.257812 -51.320312 97.1875 -53.78125 C 95.113281 -56.25 92.054688 -58.359375 88.015625 -60.109375 C 83.972656 -61.867188 78.960938 -63.421875 72.984375 -64.765625 L 55.90625 -68.984375 C 42.125 -72.210938 31.453125 -77.320312 23.890625 -84.3125 C 16.328125 -91.3125 12.546875 -100.507812 12.546875 -111.90625 C 12.546875 -121.394531 15.09375 -129.691406 20.1875 -136.796875 C 25.289062 -143.898438 32.289062 -149.4375 41.1875 -153.40625 C 50.082031 -157.375 60.296875 -159.359375 71.828125 -159.359375 C 83.492188 -159.359375 93.671875 -157.351562 102.359375 -153.34375 C 111.046875 -149.34375 117.8125 -143.753906 122.65625 -136.578125 C 127.507812 -129.410156 130.039062 -121.082031 130.25 -111.59375 L 99.25 -111.59375 C 98.6875 -118.125 95.960938 -123.21875 91.078125 -126.875 C 86.191406 -130.53125 79.703125 -132.359375 71.609375 -132.359375 C 66.203125 -132.359375 61.53125 -131.566406 57.59375 -129.984375 C 53.65625 -128.410156 50.644531 -126.234375 48.5625 -123.453125 C 46.488281 -120.671875 45.453125 -117.488281 45.453125 -113.90625 C 45.453125 -110.175781 46.5625 -107.0625 48.78125 -104.5625 C 51 -102.070312 54.054688 -100 57.953125 -98.34375 C 61.859375 -96.695312 66.238281 -95.3125 71.09375 -94.1875 L 85.4375 -90.703125 C 92.394531 -89.160156 98.773438 -87.101562 104.578125 -84.53125 C 110.378906 -81.96875 115.390625 -78.859375 119.609375 -75.203125 C 123.828125 -71.546875 127.0625 -67.21875 129.3125 -62.21875 C 131.5625 -57.226562 132.6875 -51.535156 132.6875 -45.140625 C 132.6875 -35.503906 130.257812 -27.117188 125.40625 -19.984375 C 120.550781 -12.847656 113.585938 -7.34375 104.515625 -3.46875 C 95.453125 0.394531 84.519531 2.328125 71.71875 2.328125 Z M 71.71875 2.328125 "/></g></g></g><g fill="#002f6c" fill-opacity="1"><g transform="translate(721.030879, 494.375093)"><g><path d="M 65.703125 2.328125 C 53.828125 2.328125 43.582031 -0.132812 34.96875 -5.0625 C 26.351562 -9.988281 19.707031 -16.953125 15.03125 -25.953125 C 10.351562 -34.953125 8.015625 -45.53125 8.015625 -57.6875 C 8.015625 -69.71875 10.332031 -80.25 14.96875 -89.28125 C 19.613281 -98.3125 26.15625 -105.375 34.59375 -110.46875 C 43.03125 -115.570312 52.910156 -118.125 64.234375 -118.125 C 72.035156 -118.125 79.273438 -116.859375 85.953125 -114.328125 C 92.640625 -111.796875 98.492188 -108.050781 103.515625 -103.09375 C 108.546875 -98.132812 112.445312 -91.945312 115.21875 -84.53125 C 118 -77.113281 119.390625 -68.554688 119.390625 -58.859375 L 119.390625 -50.09375 L 20.5625 -50.09375 L 20.5625 -69.921875 L 104.09375 -69.921875 L 89.4375 -64.765625 C 89.4375 -70.804688 88.488281 -76.039062 86.59375 -80.46875 C 84.695312 -84.90625 81.898438 -88.332031 78.203125 -90.75 C 74.515625 -93.175781 69.960938 -94.390625 64.546875 -94.390625 C 59.128906 -94.390625 54.519531 -93.160156 50.71875 -90.703125 C 46.925781 -88.242188 44.03125 -84.867188 42.03125 -80.578125 C 40.03125 -76.285156 39.03125 -71.363281 39.03125 -65.8125 L 39.03125 -51.890625 C 39.03125 -45.347656 40.15625 -39.789062 42.40625 -35.21875 C 44.65625 -30.65625 47.832031 -27.195312 51.9375 -24.84375 C 56.050781 -22.488281 60.851562 -21.3125 66.34375 -21.3125 C 70.070312 -21.3125 73.460938 -21.851562 76.515625 -22.9375 C 79.578125 -24.03125 82.179688 -25.613281 84.328125 -27.6875 C 86.472656 -29.757812 88.109375 -32.304688 89.234375 -35.328125 L 117.8125 -31.21875 C 115.976562 -24.46875 112.6875 -18.578125 107.9375 -13.546875 C 103.195312 -8.523438 97.257812 -4.625 90.125 -1.84375 C 82.988281 0.9375 74.847656 2.328125 65.703125 2.328125 Z M 65.703125 2.328125 "/></g></g></g><g fill="#002f6c" fill-opacity="1"><g transform="translate(867.02324, 494.375093)"><g><path d="M 44.40625 -66.875 L 44.40625 0 L 12.96875 0 L 12.96875 -116.4375 L 42.921875 -116.4375 L 43.34375 -87.125 L 40.71875 -87.125 C 43.875 -96.96875 48.632812 -104.59375 55 -110 C 61.363281 -115.414062 69.539062 -118.125 79.53125 -118.125 C 87.613281 -118.125 94.675781 -116.363281 100.71875 -112.84375 C 106.769531 -109.332031 111.445312 -104.269531 114.75 -97.65625 C 118.050781 -91.050781 119.703125 -83.109375 119.703125 -73.828125 L 119.703125 0 L 88.28125 0 L 88.28125 -68.234375 C 88.28125 -75.617188 86.414062 -81.367188 82.6875 -85.484375 C 78.957031 -89.597656 73.753906 -91.65625 67.078125 -91.65625 C 62.648438 -91.65625 58.726562 -90.6875 55.3125 -88.75 C 51.90625 -86.820312 49.234375 -84.03125 47.296875 -80.375 C 45.367188 -76.71875 44.40625 -72.21875 44.40625 -66.875 Z M 44.40625 -66.875 "/></g></g></g><g fill="#002f6c" fill-opacity="1"><g transform="translate(1018.710912, 494.375093)"><g><path d="M 72.671875 -116.4375 L 72.671875 -92.28125 L 2 -92.28125 L 2 -116.4375 Z M 18.984375 -145.015625 L 50.421875 -145.015625 L 50.421875 -34.484375 C 50.421875 -30.765625 51.242188 -28.039062 52.890625 -26.3125 C 54.546875 -24.59375 57.304688 -23.734375 61.171875 -23.734375 C 62.578125 -23.734375 64.382812 -23.851562 66.59375 -24.09375 C 68.8125 -24.34375 70.519531 -24.570312 71.71875 -24.78125 L 75.203125 -0.84375 C 72.035156 -0.0703125 68.726562 0.46875 65.28125 0.78125 C 61.84375 1.101562 58.503906 1.265625 55.265625 1.265625 C 43.316406 1.265625 34.28125 -1.492188 28.15625 -7.015625 C 22.039062 -12.535156 18.984375 -20.601562 18.984375 -31.21875 Z M 18.984375 -145.015625 "/></g></g></g><g fill="#002f6c" fill-opacity="1"><g transform="translate(1116.925934, 494.375093)"><g><path d="M 12.96875 0 L 12.96875 -116.4375 L 44.40625 -116.4375 L 44.40625 0 Z M 28.6875 -131.515625 C 23.832031 -131.515625 19.695312 -133.097656 16.28125 -136.265625 C 12.875 -139.429688 11.171875 -143.300781 11.171875 -147.875 C 11.171875 -152.4375 12.875 -156.300781 16.28125 -159.46875 C 19.695312 -162.632812 23.832031 -164.21875 28.6875 -164.21875 C 33.539062 -164.21875 37.65625 -162.632812 41.03125 -159.46875 C 44.40625 -156.300781 46.09375 -152.4375 46.09375 -147.875 C 46.09375 -143.300781 44.40625 -139.429688 41.03125 -136.265625 C 37.65625 -133.097656 33.539062 -131.515625 28.6875 -131.515625 Z M 28.6875 -131.515625 "/></g></g></g><g fill="#002f6c" fill-opacity="1"><g transform="translate(391.171218, 572.403447)"><g><path d="M 52.03125 4.578125 C 50.132812 9.648438 47.191406 13.421875 43.203125 15.890625 C 39.210938 18.359375 35.113281 19.59375 30.90625 19.59375 L 14.578125 19.59375 L 145.40625 -306.265625 C 147.144531 -310.910156 149.789062 -314.460938 153.34375 -316.921875 C 156.90625 -319.390625 161.003906 -320.625 165.640625 -320.625 L 182.1875 -320.625 Z M 52.03125 4.578125 "/></g></g></g></svg>